# xmcd
#
# Track frame offsets:
#	150
#	16001
#	48392
#	63217
#	170113
#
# Disc length: 2829 seconds
#
# Revision: 1
# Processed by: cddbd v1.5.2PL0 Copyright (c) Steve Scherf et al.
# Submitted via: audiograbber 1.83.01
#
DISCID=370b0b05
DTITLE=Grateful Dead - 78-01-07 Golden Hall, Community Concourse, San Diego CA
DYEAR=1900
DGENRE=
TTITLE0=Tuning 2
TTITLE1=Jack Straw
TTITLE2=Tuning 2
TTITLE3=Dancing In The Streets
TTITLE4=Samson and Delilah
EXTD=
EXTT0=
EXTT1=
EXTT2=
EXTT3=
EXTT4=
PLAYORDER=
